<svg width="48" height="48" viewBox="0 0 48 48" fill="none" xmlns="http://www.w3.org/2000/svg">
<path d="M21.8319 0.0997966C35.021 -1.09896 46.7114 8.64093 47.9104 21.8273C48.0602 23.9251 48.0602 26.0229 47.6106 28.1207C47.161 30.3684 46.4116 32.6161 45.5123 34.564C45.3625 34.7139 45.3625 35.0136 45.2126 35.1634C41.6156 42.0563 34.5714 47.151 26.1783 47.9002C12.9892 49.099 1.29883 39.3591 0.0998177 26.1727C-1.09919 12.8366 8.64277 1.29855 21.8319 0.0997966Z" fill="#2C3EFF"/>
<path d="M13.75 9.375C13.5 9.5 13.25 9.5 13 9.625C13.25 9.625 13.25 9.625 13.5 9.625H13.75C13.75 9.625 13.75 9.75 14 9.75C14 9.875 14.25 9.875 14.25 10C14.25 9.875 14.25 9.875 14.25 9.75V9.625C14.25 9.625 14.5 9.625 14.5 9.5C14.75 9.5 14.75 9.375 15 9.375C14.75 9.375 14.75 9.375 14.5 9.375H14.25C14.25 9.375 14.25 9.25 14 9.25C14 9.125 13.75 9.125 13.75 9C13.75 9.125 13.75 9.125 13.75 9.25C13.75 9.25 13.75 9.25 13.75 9.375Z" fill="white"/>
<path d="M32.75 38.75C32.5 39 32.25 39 32 39.25C32.25 39.25 32.25 39.25 32.5 39.25H32.75C32.75 39.25 32.75 39.5 33 39.5C33 39.75 33.25 39.75 33.25 40C33.25 39.75 33.25 39.75 33.25 39.5V39.25C33.25 39.25 33.5 39.25 33.5 39C33.75 39 33.75 38.75 34 38.75C33.75 38.75 33.75 38.75 33.5 38.75H33.25C33.25 38.75 33.25 38.5 33 38.5C33 38.25 32.75 38.25 32.75 38C32.75 38.25 32.75 38.25 32.75 38.5C32.75 38.75 32.75 38.75 32.75 38.75Z" fill="white"/>
<path d="M35.0714 7.85714C34.8571 7.85714 34.8571 8 34.6429 8C34.4286 8.14286 34.2143 8.14286 34 8.28571C34.2143 8.28571 34.6429 8.28571 34.8571 8.28571C35.0714 8.28571 35.0714 8.28571 35.2857 8.28571C35.2857 8.42857 35.5 8.42857 35.5 8.57143C35.7143 8.71429 35.7143 8.85714 35.9286 9C35.9286 8.85714 35.9286 8.57143 35.9286 8.42857C35.9286 8.28571 35.9286 8.28571 35.9286 8.14286C36.1429 8.14286 36.1429 8 36.3571 8C36.5714 7.85714 36.7857 7.85714 37 7.71429C36.7857 7.71429 36.3571 7.71429 36.1429 7.71429C35.9286 7.71429 35.9286 7.71429 35.7143 7.71429C35.7143 7.57143 35.5 7.57143 35.5 7.42857C35.2857 7.28571 35.2857 7.14286 35.0714 7C35.0714 7.14286 35.0714 7.42857 35.0714 7.57143C35.0714 7.71429 35.0714 7.71429 35.0714 7.85714Z" fill="white"/>
<path d="M11.7778 35.3333C11.6667 35.3333 11.5556 35.5 11.4444 35.5C11.3333 35.6667 11.1111 35.8333 11 36C11.2222 36.1667 11.4444 36 11.5556 36C11.6667 36 11.7778 36 11.8889 35.8333C11.8889 36 12 36.1667 12 36.3333C12.1111 36.5 12.2222 36.8333 12.3333 37C12.4444 36.6667 12.3333 36.3333 12.3333 36.1667C12.3333 36 12.3333 35.8333 12.2222 35.6667C12.3333 35.6667 12.4444 35.5 12.5556 35.5C12.6667 35.3333 12.8889 35.1667 13 35C12.7778 34.8333 12.5556 35 12.4444 35C12.3333 35 12.2222 35 12.1111 35.1667C12.1111 35 12 34.8333 12 34.6667C11.8889 34.5 11.7778 34.1667 11.6667 34C11.5556 34.3333 11.6667 34.6667 11.6667 34.8333C11.6667 35 11.6667 35.1667 11.7778 35.3333Z" fill="white"/>
<path d="M19.8987 19.6088L2.43038 12.8322C2.27848 12.9828 2.27848 13.284 2.12658 13.4346C1.06329 15.3923 0.455696 17.6511 0 19.91C13.6709 33.4632 33.4177 50.3294 27.9494 28.4937L45.5696 35.2703C45.7215 35.1197 45.7215 34.8185 45.8734 34.6679C46.9367 32.7103 47.5443 30.4514 48 28.1925C34.1772 14.4887 14.4304 -2.37746 19.8987 19.6088Z" fill="#E6E6E6"/>
<path d="M20.9444 19.349L2.30556 13C2.15278 13.1477 2.15278 13.443 2 13.5906C6.58333 18.4631 27.2083 40.4631 27.0556 28.5034L45.6944 35C45.8472 34.8523 45.8472 34.557 46 34.4094C41.4167 29.3893 20.6389 7.53691 20.9444 19.349Z" fill="white"/>
</svg>
